# xmcd
#
# Track frame offsets:
#	150
#	12471
#	23539
#	35732
#	51154
#	65668
#	78805
#	94111
#	108376
#	120274
#	134500
#	146405
#	159393
#	173669
#	187211
#	199651
#
# Disc length: 2796
#
# Revision: 1
# Processed by: cddbd v1.5.1PL0 Copyright (c) Steve Scherf et al.
# Submitted via: gmmusic 1.1.10
# Normalized: r0:DSETVAR1
#
DISCID=d40aea10
DTITLE=Various Artist - The Early Years if Blues 1926-1948 [CD 3)
DYEAR=1900
DGENRE=Blues
TTITLE0=Champion Jack Dupree - Junker Blues
TTITLE1=Big Bill Broonzy and Memphis Slim - All By Myself
TTITLE2=Cow Cow Davenport - Railroad Blues
TTITLE3=Bessie Smith - Sagety Mama
TTITLE4=Blind Willie Mc Tell - Ticket Agent Blues
TTITLE5=Charlie Mc Coy - Candy Man Blues
TTITLE6=Cleo Gipson and Her Hot Three - I've Got Ford Movements in My Hips
TTITLE7=Buddy Moss and Joshua White - Undertaker Blues
TTITLE8=James 'Kokomo' Arnold - Shake that Thing
TTITLE9=Bo Carter - Sorry Feeling Blues
TTITLE10=Big Teddy Boy Edwards - Louisiana
TTITLE11=Roosevelt Scott and Big Bill Broony - Black Gal Blues
TTITLE12=Bea Booze - See See Rider Blues
TTITLE13=Willie 'Long Time' Smith - My Buddy Doctor Clayton
TTITLE14=Jimmie Gordon - Seet Jelly Rollin'
TTITLE15=Robert Johnson - Little Queen of Spades
EXTD=
EXTT0=
EXTT1=
EXTT2=
EXTT3=
EXTT4=
EXTT5=
EXTT6=
EXTT7=
EXTT8=
EXTT9=
EXTT10=
EXTT11=
EXTT12=
EXTT13=
EXTT14=
EXTT15=
PLAYORDER=
